<?xml version="1.0" encoding="utf-8"?>
<!-- Generator: Adobe Illustrator 16.0.0, SVG Export Plug-In . SVG Version: 6.00 Build 0)  -->
<!DOCTYPE svg PUBLIC "-//W3C//DTD SVG 1.1//EN" "http://www.w3.org/Graphics/SVG/1.1/DTD/svg11.dtd">
<svg version="1.1" xmlns="http://www.w3.org/2000/svg" xmlns:xlink="http://www.w3.org/1999/xlink" x="0px" y="0px"
	 width="300.009px" height="305.851px" viewBox="0 0 300.009 305.851" enable-background="new 0 0 300.009 305.851"
	 xml:space="preserve">
<g id="background" display="none">
	<rect x="50.004" y="55.846" display="inline" fill="#FFFFFF" stroke="#939598" stroke-miterlimit="10" width="200" height="200"/>
</g>
<g id="Layer_5" display="none">
	<rect x="-147.636" y="-161.993" display="inline" stroke="#00AEEF" stroke-miterlimit="10" width="595.28" height="595.281"/>
</g>
<g id="idea_01" display="none">
	<line fill="none" stroke="#939598" stroke-miterlimit="10" x1="150.005" y1="155.847" x2="150.005" y2="255.847"/>
	<polygon display="inline" points="-1121.041,200.497 -1121.041,400.497 -976.04,400.497 -976.04,373.922 -1092.419,373.922 
		-1092.419,228.39 -1021.04,300.073 -949.661,231.073 -949.661,400.499 -921.04,400.499 -921.04,200.497 	"/>
	<polygon display="inline" fill="#FFFFFF" points="-439.771,178.96 -457.642,196.21 -474.815,179.034 -475.487,179.027 
		-475.487,178.96 -482.643,178.96 -482.643,228.96 -446.392,228.96 -446.392,222.316 -475.487,222.316 -475.487,185.934 
		-457.642,203.854 -439.798,186.604 -439.798,228.961 -432.643,228.961 -432.643,178.96 	"/>
	<g display="inline">
		<g>
			<path fill="#FFFFFF" d="M-399.365,179.571h7.155v43.356h29.095v6.644h-36.25V179.571z"/>
		</g>
		<g>
			<path fill="#FFFFFF" d="M-385.622,186.31"/>
			<polygon fill="#FFFFFF" points="-356.494,179.571 -374.365,197.821 -385.538,186.396 -385.538,193.047 -374.365,204.466 
				-356.521,186.216 -356.521,229.572 -349.365,229.572 -349.365,179.571 			"/>
		</g>
	</g>
	<g display="inline">
		
			<polyline fill="none" stroke="#FFFFFF" stroke-width="5" stroke-linecap="round" stroke-linejoin="round" stroke-miterlimit="10" points="
			-763.61,-139.066 -792.816,-168.273 -792.816,31.728 -647.815,31.727 		"/>
		
			<polyline fill="none" stroke="#FFFFFF" stroke-width="5" stroke-linecap="round" stroke-linejoin="round" stroke-miterlimit="10" points="
			-592.815,31.728 -592.815,-168.273 -692.815,-68.272 -738.773,-114.229 		"/>
	</g>
	<g display="inline">
		<g>
			<polygon fill="#FFFFFF" points="-316.094,230.434 -316.704,230.434 -316.704,181.043 -315.484,181.043 -315.484,229.213 
				-280.729,229.213 -280.729,230.433 			"/>
		</g>
		<g>
			<polygon fill="#FFFFFF" points="-266.704,229.823 -267.924,229.823 -267.924,182.515 -291.704,206.295 -303.344,194.655 
				-302.482,193.793 -291.704,204.57 -266.704,179.57 			"/>
		</g>
	</g>
	<g display="inline">
		<path fill="#FFFFFF" d="M-278.635-97.254l-68.293,0.002v-95.123c0-1.347-1.091-2.439-2.438-2.439
			c-1.347,0-2.439,1.092-2.439,2.439v95.123l-68.293-0.002c-1.347,0-2.439,1.092-2.439,2.439s1.092,2.439,2.439,2.439h68.293h2.439
			h2.438h68.293c1.348,0,2.439-1.092,2.439-2.439S-277.287-97.254-278.635-97.254z"/>
		<path fill="#FFFFFF" d="M-300.586-147.043l-20.693-20.693c-0.951-0.952-2.496-0.952-3.449,0c-0.951,0.953-0.951,2.497,0,3.45
			l24.143,24.143l46.342-46.342v91.672c0,1.348,1.092,2.439,2.439,2.439s2.439-1.092,2.439-2.439v-103.449L-300.586-147.043z"/>
		<path fill="#FFFFFF" d="M-374.004-164.287c0.953-0.953,0.953-2.497,0-3.45c-0.953-0.952-2.497-0.952-3.449,0l-20.693,20.693
			l-51.219-51.22v103.449c0,1.348,1.092,2.439,2.439,2.439c1.347,0,2.439-1.092,2.439-2.439v-91.672l46.341,46.342L-374.004-164.287
			z"/>
	</g>
	<g display="inline">
		
			<polygon fill="none" stroke="#FFFFFF" stroke-width="10" stroke-linecap="round" stroke-linejoin="round" stroke-miterlimit="10" points="
			785.418,-32.11 885.418,67.89 885.418,-132.111 		"/>
		
			<polygon fill="none" stroke="#FFFFFF" stroke-width="10" stroke-linecap="round" stroke-linejoin="round" stroke-miterlimit="10" points="
			540.417,67.889 685.418,67.89 830.418,67.889 685.418,-132.111 		"/>
		
			<polygon fill="none" stroke="#FFFFFF" stroke-width="10" stroke-linecap="round" stroke-linejoin="round" stroke-miterlimit="10" points="
			485.417,-132.111 485.417,67.89 585.417,-32.11 		"/>
	</g>
	<g display="inline">
		<path fill="#FFFFFF" d="M830.417,350.425l-140,0.001V155.425c0-2.761-2.238-5-5-5s-5,2.239-5,5v195.001l-140-0.001
			c-2.762,0-5,2.238-5,5s2.238,5,5,5l140,0.001h5h5l140-0.001c2.762,0,5-2.238,5-5S833.179,350.425,830.417,350.425z"/>
		<path fill="#FFFFFF" d="M785.417,248.354l-42.422-42.422c-1.951-1.951-5.119-1.951-7.07,0c-1.953,1.953-1.953,5.119,0,7.072
			l49.492,49.492l95-95.001v187.93c0,2.762,2.238,5,5,5s5-2.238,5-5V143.354L785.417,248.354z"/>
		<path fill="#FFFFFF" d="M634.909,213.005c1.953-1.953,1.953-5.119,0-7.072c-1.953-1.951-5.118-1.951-7.071,0l-42.421,42.422
			l-105-105.001v212.072c0,2.762,2.238,5,5,5c2.761,0,5-2.238,5-5v-187.93l95,95.001L634.909,213.005z"/>
	</g>
	<text transform="matrix(1 0 0 1 -500.5034 60.0464)" display="inline" fill="#FFFFFF" font-family="'GillSansMT'" font-size="36">(L)eandro (M)onteiro</text>
	<rect x="-487.079" y="96.24" display="inline" fill="#FFFFFF" width="43.608" height="43.607"/>
	<text transform="matrix(1 0 0 1 -412.1113 127.1016)" display="inline" fill="#FFFFFF" font-family="'GillSansMT'" font-size="36">+ LM</text>
	<g display="inline">
		<path fill="#FFFFFF" d="M-556.786,213.55c0-0.008-0.003-0.017-0.003-0.025s0.003-0.018,0.003-0.025
			c0-1.348-1.092-2.439-2.439-2.439l-68.293,0.002v-95.124c0-1.347-1.092-2.439-2.438-2.439c-1.348,0-2.439,1.093-2.439,2.439
			v95.124l-68.293-0.002c-1.348,0-2.439,1.092-2.439,2.439c0,0.008,0.003,0.017,0.003,0.025s-0.003,0.018-0.003,0.025
			c0,1.348,1.092,2.439,2.439,2.439h68.293v95.123c0,1.346,1.092,2.438,2.439,2.438c1.346,0,2.438-1.092,2.438-2.438v-95.123h68.293
			C-557.878,215.989-556.786,214.897-556.786,213.55z"/>
		<path fill="#FFFFFF" d="M-678.737,258.88l-46.342,46.344V213.55c0-0.008-0.002-0.017-0.002-0.025s0.002-0.018,0.002-0.025v-91.672
			l46.342,46.342l24.143-24.143c0.952-0.953,0.952-2.498,0-3.449c-0.953-0.953-2.497-0.953-3.449,0l-20.693,20.693l-51.22-51.222
			v103.45c0,0.008,0.003,0.017,0.003,0.025s-0.003,0.018-0.003,0.025v103.449l51.22-51.219l20.693,20.693
			c0.952,0.951,2.496,0.951,3.449,0c0.952-0.953,0.952-2.498,0-3.449L-678.737,258.88z"/>
		<path fill="#FFFFFF" d="M-529.956,110.049l-51.221,51.222l-20.693-20.693c-0.951-0.953-2.496-0.953-3.449,0
			c-0.951,0.951-0.951,2.496,0,3.449l24.143,24.143l46.342-46.342v91.672c0,0.008,0.003,0.017,0.003,0.025s-0.003,0.018-0.003,0.025
			v91.674l-46.342-46.344l-24.143,24.145c-0.951,0.951-0.951,2.496,0,3.449c0.953,0.951,2.498,0.951,3.449,0l20.693-20.693
			l51.221,51.219V213.55c0-0.008-0.003-0.017-0.003-0.025s0.003-0.018,0.003-0.025V110.049z"/>
	</g>
	<g display="inline">
		
			<polygon fill="none" stroke="#FFFFFF" stroke-width="10" stroke-linecap="round" stroke-linejoin="round" stroke-miterlimit="10" points="
			819.979,-232.112 919.979,-332.112 919.979,-132.111 		"/>
		
			<polygon fill="none" stroke="#FFFFFF" stroke-width="10" stroke-linecap="round" stroke-linejoin="round" stroke-miterlimit="10" points="
			574.978,-332.111 719.979,-332.112 864.979,-332.111 719.979,-132.111 		"/>
		
			<polygon fill="none" stroke="#FFFFFF" stroke-width="10" stroke-linecap="round" stroke-linejoin="round" stroke-miterlimit="10" points="
			519.978,-132.111 519.978,-332.112 619.978,-232.112 		"/>
	</g>
	<g display="inline">
		<g>
			<path fill="#FFFFFF" d="M293.009,305.851H7c-3.86,0-7-3.141-7-7V12.841c0-3.86,3.14-7,7-7h286.009c3.859,0,7,3.14,7,7v286.009
				C300.009,302.71,296.868,305.851,293.009,305.851z M10,295.851h280.009V15.841H10V295.851z"/>
		</g>
		<g>
			<g>
				<g>
					<polygon fill="#FFFFFF" points="74.397,234.677 67.566,234.677 67.566,76.503 81.226,76.503 81.226,221.015 185.493,221.015 
						185.493,234.673 					"/>
				</g>
			</g>
			<g>
				<g>
					<polygon fill="#FFFFFF" points="227.567,232.845 213.907,232.845 213.907,97.991 147.566,164.332 105.579,122.344 
						115.229,112.68 147.566,145.015 227.567,65.015 					"/>
				</g>
			</g>
		</g>
	</g>
	<g display="inline">
		<g>
			<g>
				<polygon fill="#FFFFFF" points="-411.065,-199.641 -412.896,-199.641 -412.896,-347.813 -409.237,-347.813 -409.237,-203.303 
					-304.97,-203.303 -304.97,-199.645 				"/>
			</g>
			<g>
				<polygon fill="#FFFFFF" points="-262.896,-201.473 -266.556,-201.473 -266.556,-343.398 -337.896,-272.057 -372.815,-306.977 
					-370.231,-309.563 -337.896,-277.231 -262.896,-352.231 				"/>
			</g>
		</g>
		<circle fill="none" stroke="#FFFFFF" stroke-width="5" stroke-miterlimit="10" cx="-337.896" cy="-275.937" r="150"/>
	</g>
	<g display="inline">
		<g>
			<path fill="#FFFFFF" d="M-155.712,560.495h-286.009c-3.86,0-7-3.141-7-7V267.486c0-3.859,3.14-7,7-7h286.009c3.86,0,7,3.141,7,7
				v286.009C-148.712,557.354-151.852,560.495-155.712,560.495z M-438.721,550.495h280.009V270.486h-280.009V550.495z"/>
		</g>
		<g>
			<g>
				<g>
					<polygon fill="#FFFFFF" points="-374.323,484.321 -376.154,484.321 -376.154,336.148 -372.495,336.148 -372.495,480.659 
						-268.228,480.659 -268.228,484.317 					"/>
					<polygon fill="#FFFFFF" points="-374.323,489.321 -381.154,489.321 -381.154,331.148 -367.495,331.148 -367.495,475.659 
						-263.228,475.659 -263.228,489.317 					"/>
				</g>
			</g>
			<g>
				<g>
					<polygon fill="#FFFFFF" points="-226.153,482.489 -229.813,482.489 -229.813,340.564 -301.154,411.905 -336.073,376.986 
						-333.489,374.398 -301.154,406.73 -226.153,331.73 					"/>
					<polygon fill="#FFFFFF" points="-221.153,487.489 -234.813,487.489 -234.813,352.636 -301.154,418.977 -343.142,376.989 
						-333.492,367.325 -301.154,399.659 -221.153,319.659 					"/>
				</g>
			</g>
		</g>
	</g>
</g>
<g id="idea_02" display="none">
	<polygon display="inline" fill="#FFFFFF" stroke="#00AEEF" stroke-miterlimit="10" points="150.004,255.847 50.004,255.847 
		50.004,55.846 	"/>
	<polygon display="inline" fill="#FFFFFF" stroke="#00AEEF" stroke-miterlimit="10" points="90.005,55.847 250.005,55.847 
		250.005,255.847 	"/>
	<rect x="-108.329" y="123.18" display="inline" fill="#00A651" width="40" height="40"/>
	
		<rect x="-108.329" y="49.839" transform="matrix(-0.7071 0.7071 -0.7071 -0.7071 -101.4033 181.6813)" display="inline" fill="#FFFFFF" stroke="#00AEEF" stroke-miterlimit="10" width="40" height="40"/>
</g>
<g id="Layer_4" display="none">
	<g display="inline">
		<g>
			<path d="M-309.933-96.64h29.297v204.639h-29.297V-96.64z"/>
		</g>
		<g>
			<path d="M-164.932,78.702v29.297h-100V78.702H-164.932z"/>
		</g>
	</g>
	<g display="inline">
		<g>
			<path d="M-309.933,141.198h29.297v204.639h-29.297V141.198z"/>
		</g>
		<g>
			<path d="M-164.932,316.54v29.297h-100L-164.932,316.54z"/>
		</g>
	</g>
</g>
<g id="logo">
	<g>
		<g>
			<path fill="#FFFFFF" d="M293.009,305.851H7c-3.86,0-7-3.141-7-7V12.842c0-3.86,3.14-7,7-7h286.009c3.859,0,7,3.14,7,7v286.009
				C300.009,302.71,296.868,305.851,293.009,305.851z M10,295.851h280.009V15.842H10V295.851z"/>
		</g>
		<g>
			<g>
				<g>
					<polygon fill="#FFFFFF" points="74.397,234.677 67.566,234.677 67.566,76.504 81.226,76.504 81.226,221.015 185.493,221.015 
						185.493,234.673 					"/>
				</g>
			</g>
			<g>
				<g>
					<polygon fill="#FFFFFF" points="227.567,232.845 213.907,232.845 213.907,97.991 147.566,164.332 105.579,122.344 
						115.229,112.68 147.566,145.015 227.567,65.015 					"/>
				</g>
			</g>
		</g>
	</g>
</g>
</svg>
