<?xml version="1.0" encoding="utf-8"?>
<!-- Generator: Adobe Illustrator 16.0.0, SVG Export Plug-In . SVG Version: 6.00 Build 0)  -->
<!DOCTYPE svg PUBLIC "-//W3C//DTD SVG 1.1//EN" "http://www.w3.org/Graphics/SVG/1.1/DTD/svg11.dtd">
<svg version="1.1" id="Layer_1" xmlns="http://www.w3.org/2000/svg" xmlns:xlink="http://www.w3.org/1999/xlink" x="0px" y="0px"
	 width="100px" height="100px" viewBox="0 0 100 100" enable-background="new 0 0 100 100" xml:space="preserve">
<g>
	<g>
		<g>
			<path fill="#5C9720" d="M2.338,50C2.338,70.325,16,87.66,33,94.441V5.558C16,12.339,2.338,29.675,2.338,50z"/>
			<path fill="#EA0910" d="M49.871,2.5C43.975,2.5,39,3.587,33,5.558v88.883c6,1.972,10.975,3.059,16.871,3.059
				c26.186,0,47.41-21.268,47.41-47.5C97.281,23.767,76.057,2.5,49.871,2.5z"/>
		</g>
		<ellipse fill="#FBE026" cx="33.775" cy="50.315" rx="16.171" ry="16.517"/>
		<path fill="#EA0910" d="M24.284,41h18.109c0.225,6,2.289,19.987-9.054,19.987C21.891,60.987,24.284,45,24.284,41z"/>
	</g>
	<path fill="#FFFFFF" d="M30.232,47h6.177c0.076,2,0.78,7.279-3.089,7.279C29.417,54.279,30.232,48,30.232,47z"/>
</g>
</svg>
