<?xml version="1.0" encoding="utf-8"?>
<!-- Generator: Adobe Illustrator 16.0.0, SVG Export Plug-In . SVG Version: 6.00 Build 0)  -->
<!DOCTYPE svg PUBLIC "-//W3C//DTD SVG 1.1//EN" "http://www.w3.org/Graphics/SVG/1.1/DTD/svg11.dtd">
<svg version="1.1" xmlns="http://www.w3.org/2000/svg" xmlns:xlink="http://www.w3.org/1999/xlink" x="0px" y="0px" width="100px"
	 height="100px" viewBox="0 0 100 100" enable-background="new 0 0 100 100" xml:space="preserve">
<g id="Layer_1" display="none">
	<g display="inline">
		<g>
			<g>
				<path fill="#5C9720" d="M2.338,50C2.338,70.325,16,87.66,33,94.441V5.558C16,12.339,2.338,29.675,2.338,50z"/>
				<path fill="#EA0910" d="M49.871,2.5C43.975,2.5,39,3.587,33,5.558v88.883c6,1.972,10.975,3.059,16.871,3.059
					c26.186,0,47.41-21.268,47.41-47.5C97.281,23.767,76.057,2.5,49.871,2.5z"/>
			</g>
			<ellipse fill="#FBE026" cx="33.775" cy="50.315" rx="16.171" ry="16.517"/>
			<path fill="#EA0910" d="M24.284,41h18.109c0.225,6,2.289,19.987-9.054,19.987C21.891,60.987,24.284,45,24.284,41z"/>
		</g>
		<path fill="#FFFFFF" d="M30.232,47h6.177c0.076,2,0.78,7.279-3.089,7.279C29.417,54.279,30.232,48,30.232,47z"/>
	</g>
</g>
<g id="Layer_2">
	<path fill="#05277E" d="M96.915,50.052c0,26.147-21.136,47.345-47.208,47.345C23.635,97.396,2.5,76.199,2.5,50.052
		S23.635,2.708,49.708,2.708C75.779,2.708,96.915,23.904,96.915,50.052z"/>
	<path fill="#FFFFFF" d="M61.035,96.224c0,0-7.985,1.235-10.652,1.245C47.534,97.479,39,96.224,39,96.224V66.541L14.429,81.272
		c0,0-4.364-5.399-5.526-7.401c-1.017-1.752-3.201-7.402-3.201-7.402L13.535,62H3.961c0,0-1.203-7.605-1.242-10.152
		c-0.054-3.421,1.242-13.65,1.242-13.65l9.5-0.155l-7.91-4.773c0,0,1.976-4.511,3.626-7.508c1.655-3.006,5.306-7.149,5.306-7.149
		l24.7,15.099L39.148,3.88c0,0,8.117-1.393,10.852-1.393C52.726,2.489,60.815,3.88,60.815,3.88l0.049,29.612l24.725-14.768
		c0,0,4.061,5.189,5.188,7.07c1.076,1.795,3.618,7.552,3.618,7.552l-7.838,4.847l9.481-0.083c0,0,1.474,9.101,1.462,12.163
		c-0.012,2.873-1.462,11.399-1.462,11.399l-9.408,0.146l7.691,4.654c0,0-2.705,6.082-3.837,7.985
		c-1.069,1.797-4.896,6.781-4.896,6.781L60.815,66.321L61.035,96.224z"/>
	<path fill="#CB162C" d="M43.971,96.949L43.916,57H3.084c0,0-0.489-5.063-0.493-6.772c-0.005-1.845,0.493-7.344,0.493-7.344
		l40.775-0.027l0.001-39.861c0,0,4.599-0.493,6.139-0.492c1.526,0.001,6.084,0.496,6.084,0.496l-0.056,40.018l40.887-0.167
		c0,0,0.44,5.36,0.438,7.157C97.353,51.764,96.915,57,96.915,57H56.084l0.109,40.004c0,0-4.662,0.449-6.221,0.441
		C48.467,97.436,43.971,96.949,43.971,96.949z"/>
	<polygon fill="#CB162C" points="69.292,62 78.938,62 92.805,70.316 90.503,74.458 	"/>
	<polygon fill="#CB162C" points="9.168,74.303 11.963,78.348 39.148,62 29.831,62 	"/>
	<polygon fill="#CB162C" points="7.25,29.772 9.552,25.421 30.342,38 21.062,38 	"/>
	<polygon fill="#CB162C" points="60.962,38 88,21.747 90.776,25.421 70.315,38 	"/>
</g>
</svg>
